<mxfile host="Electron" modified="2024-01-16T12:57:59.569Z" agent="Mozilla/5.0 (Windows NT 10.0; Win64; x64) AppleWebKit/537.36 (KHTML, like Gecko) draw.io/22.1.11 Chrome/114.0.5735.289 Electron/25.9.8 Safari/537.36" etag="gkjugHyvT9zUSHig-aBB" version="22.1.11" type="device">
  <diagram name="第 1 页" id="nCFfUM4QkRXOyrPq_4zL">
    <mxGraphModel dx="1434" dy="844" grid="1" gridSize="10" guides="1" tooltips="1" connect="1" arrows="1" fold="1" page="1" pageScale="1" pageWidth="827" pageHeight="1169" math="0" shadow="0">
      <root>
        <mxCell id="0" />
        <mxCell id="1" parent="0" />
        <mxCell id="VFgwaDDUP3EgP_5u-E6X-1" value="Mediator" style="swimlane;fontStyle=1;align=center;verticalAlign=top;childLayout=stackLayout;horizontal=1;startSize=26;horizontalStack=0;resizeParent=1;resizeParentMax=0;resizeLast=0;collapsible=1;marginBottom=0;whiteSpace=wrap;html=1;" vertex="1" parent="1">
          <mxGeometry y="280" width="160" height="34" as="geometry" />
        </mxCell>
        <mxCell id="VFgwaDDUP3EgP_5u-E6X-3" value="" style="line;strokeWidth=1;fillColor=none;align=left;verticalAlign=middle;spacingTop=-1;spacingLeft=3;spacingRight=3;rotatable=0;labelPosition=right;points=[];portConstraint=eastwest;strokeColor=inherit;" vertex="1" parent="VFgwaDDUP3EgP_5u-E6X-1">
          <mxGeometry y="26" width="160" height="8" as="geometry" />
        </mxCell>
        <mxCell id="VFgwaDDUP3EgP_5u-E6X-14" style="edgeStyle=none;rounded=0;orthogonalLoop=1;jettySize=auto;html=1;endArrow=open;endFill=0;" edge="1" parent="1" source="VFgwaDDUP3EgP_5u-E6X-5" target="VFgwaDDUP3EgP_5u-E6X-1">
          <mxGeometry relative="1" as="geometry" />
        </mxCell>
        <mxCell id="VFgwaDDUP3EgP_5u-E6X-5" value="Colleague" style="swimlane;fontStyle=1;align=center;verticalAlign=top;childLayout=stackLayout;horizontal=1;startSize=26;horizontalStack=0;resizeParent=1;resizeParentMax=0;resizeLast=0;collapsible=1;marginBottom=0;whiteSpace=wrap;html=1;" vertex="1" parent="1">
          <mxGeometry x="400" y="265" width="160" height="64" as="geometry" />
        </mxCell>
        <mxCell id="VFgwaDDUP3EgP_5u-E6X-25" value="#mediator" style="text;html=1;strokeColor=none;fillColor=none;align=left;verticalAlign=middle;whiteSpace=wrap;rounded=0;spacingRight=4;spacingLeft=4;" vertex="1" parent="VFgwaDDUP3EgP_5u-E6X-5">
          <mxGeometry y="26" width="160" height="30" as="geometry" />
        </mxCell>
        <mxCell id="VFgwaDDUP3EgP_5u-E6X-6" value="" style="line;strokeWidth=1;fillColor=none;align=left;verticalAlign=middle;spacingTop=-1;spacingLeft=3;spacingRight=3;rotatable=0;labelPosition=right;points=[];portConstraint=eastwest;strokeColor=inherit;" vertex="1" parent="VFgwaDDUP3EgP_5u-E6X-5">
          <mxGeometry y="56" width="160" height="8" as="geometry" />
        </mxCell>
        <mxCell id="VFgwaDDUP3EgP_5u-E6X-13" style="edgeStyle=none;rounded=0;orthogonalLoop=1;jettySize=auto;html=1;endArrow=block;endFill=0;" edge="1" parent="1" source="VFgwaDDUP3EgP_5u-E6X-7" target="VFgwaDDUP3EgP_5u-E6X-1">
          <mxGeometry relative="1" as="geometry" />
        </mxCell>
        <mxCell id="VFgwaDDUP3EgP_5u-E6X-15" style="edgeStyle=none;rounded=0;orthogonalLoop=1;jettySize=auto;html=1;entryX=0;entryY=0.5;entryDx=0;entryDy=0;endArrow=open;endFill=0;" edge="1" parent="1" source="VFgwaDDUP3EgP_5u-E6X-7" target="VFgwaDDUP3EgP_5u-E6X-9">
          <mxGeometry relative="1" as="geometry" />
        </mxCell>
        <mxCell id="VFgwaDDUP3EgP_5u-E6X-24" style="edgeStyle=orthogonalEdgeStyle;rounded=0;orthogonalLoop=1;jettySize=auto;html=1;entryX=0.5;entryY=1;entryDx=0;entryDy=0;exitX=0.5;exitY=1;exitDx=0;exitDy=0;endArrow=open;endFill=0;" edge="1" parent="1" source="VFgwaDDUP3EgP_5u-E6X-7" target="VFgwaDDUP3EgP_5u-E6X-11">
          <mxGeometry relative="1" as="geometry">
            <Array as="points">
              <mxPoint x="80" y="520" />
              <mxPoint x="600" y="520" />
            </Array>
          </mxGeometry>
        </mxCell>
        <mxCell id="VFgwaDDUP3EgP_5u-E6X-7" value="ConcreteMediator" style="swimlane;fontStyle=1;align=center;verticalAlign=top;childLayout=stackLayout;horizontal=1;startSize=26;horizontalStack=0;resizeParent=1;resizeParentMax=0;resizeLast=0;collapsible=1;marginBottom=0;whiteSpace=wrap;html=1;" vertex="1" parent="1">
          <mxGeometry y="400" width="160" height="94" as="geometry" />
        </mxCell>
        <mxCell id="VFgwaDDUP3EgP_5u-E6X-26" value="-concreteColleague1" style="text;html=1;strokeColor=none;fillColor=none;align=left;verticalAlign=middle;whiteSpace=wrap;rounded=0;spacingLeft=4;spacingRight=4;" vertex="1" parent="VFgwaDDUP3EgP_5u-E6X-7">
          <mxGeometry y="26" width="160" height="30" as="geometry" />
        </mxCell>
        <mxCell id="VFgwaDDUP3EgP_5u-E6X-27" value="-concreteColleague2" style="text;html=1;strokeColor=none;fillColor=none;align=left;verticalAlign=middle;whiteSpace=wrap;rounded=0;spacingLeft=4;spacingRight=4;" vertex="1" parent="VFgwaDDUP3EgP_5u-E6X-7">
          <mxGeometry y="56" width="160" height="30" as="geometry" />
        </mxCell>
        <mxCell id="VFgwaDDUP3EgP_5u-E6X-8" value="" style="line;strokeWidth=1;fillColor=none;align=left;verticalAlign=middle;spacingTop=-1;spacingLeft=3;spacingRight=3;rotatable=0;labelPosition=right;points=[];portConstraint=eastwest;strokeColor=inherit;" vertex="1" parent="VFgwaDDUP3EgP_5u-E6X-7">
          <mxGeometry y="86" width="160" height="8" as="geometry" />
        </mxCell>
        <mxCell id="VFgwaDDUP3EgP_5u-E6X-16" style="edgeStyle=none;rounded=0;orthogonalLoop=1;jettySize=auto;html=1;exitX=0.5;exitY=0;exitDx=0;exitDy=0;endArrow=block;endFill=0;" edge="1" parent="1" source="VFgwaDDUP3EgP_5u-E6X-9" target="VFgwaDDUP3EgP_5u-E6X-5">
          <mxGeometry relative="1" as="geometry" />
        </mxCell>
        <mxCell id="VFgwaDDUP3EgP_5u-E6X-9" value="ConcreteColleague1" style="swimlane;fontStyle=1;align=center;verticalAlign=top;childLayout=stackLayout;horizontal=1;startSize=26;horizontalStack=0;resizeParent=1;resizeParentMax=0;resizeLast=0;collapsible=1;marginBottom=0;whiteSpace=wrap;html=1;" vertex="1" parent="1">
          <mxGeometry x="280" y="430" width="160" height="34" as="geometry" />
        </mxCell>
        <mxCell id="VFgwaDDUP3EgP_5u-E6X-10" value="" style="line;strokeWidth=1;fillColor=none;align=left;verticalAlign=middle;spacingTop=-1;spacingLeft=3;spacingRight=3;rotatable=0;labelPosition=right;points=[];portConstraint=eastwest;strokeColor=inherit;" vertex="1" parent="VFgwaDDUP3EgP_5u-E6X-9">
          <mxGeometry y="26" width="160" height="8" as="geometry" />
        </mxCell>
        <mxCell id="VFgwaDDUP3EgP_5u-E6X-17" style="edgeStyle=none;rounded=0;orthogonalLoop=1;jettySize=auto;html=1;endArrow=block;endFill=0;" edge="1" parent="1" source="VFgwaDDUP3EgP_5u-E6X-11" target="VFgwaDDUP3EgP_5u-E6X-5">
          <mxGeometry relative="1" as="geometry" />
        </mxCell>
        <mxCell id="VFgwaDDUP3EgP_5u-E6X-11" value="ConcreteColleague2" style="swimlane;fontStyle=1;align=center;verticalAlign=top;childLayout=stackLayout;horizontal=1;startSize=26;horizontalStack=0;resizeParent=1;resizeParentMax=0;resizeLast=0;collapsible=1;marginBottom=0;whiteSpace=wrap;html=1;" vertex="1" parent="1">
          <mxGeometry x="520" y="430" width="160" height="34" as="geometry" />
        </mxCell>
        <mxCell id="VFgwaDDUP3EgP_5u-E6X-12" value="" style="line;strokeWidth=1;fillColor=none;align=left;verticalAlign=middle;spacingTop=-1;spacingLeft=3;spacingRight=3;rotatable=0;labelPosition=right;points=[];portConstraint=eastwest;strokeColor=inherit;" vertex="1" parent="VFgwaDDUP3EgP_5u-E6X-11">
          <mxGeometry y="26" width="160" height="8" as="geometry" />
        </mxCell>
      </root>
    </mxGraphModel>
  </diagram>
</mxfile>
